<svg xmlns="http://www.w3.org/2000/svg" width="1024" height="1024" viewBox="0 0 1024 1024">
  <!-- Default bot avatar (square, blue, capsule eyes, idle) from components/avatar/geometry.ts in 64-unit space. -->
  <defs>
    <linearGradient id="tile" x1="0" y1="0" x2="0" y2="1">
      <stop offset="0" stop-color="#ffffff"/>
      <stop offset="1" stop-color="#e8ebf1"/>
    </linearGradient>
    <clipPath id="body-clip">
      <path d="M32 4C52 4 60 12 60 32S52 60 32 60 4 52 4 32 12 4 32 4Z"/>
    </clipPath>
  </defs>
  <rect x="100" y="100" width="824" height="824" rx="185" fill="url(#tile)"/>
  <rect x="100.5" y="100.5" width="823" height="823" rx="184.5" fill="none" stroke="#0d0e11" stroke-opacity="0.08"/>
  <g transform="translate(176 176) scale(10.5)">
    <path d="M32 4C52 4 60 12 60 32S52 60 32 60 4 52 4 32 12 4 32 4Z" fill="#3b82f6"/>
    <g clip-path="url(#body-clip)">
      <!-- Volume shadow: the body minus itself shifted up 8 units. -->
      <path d="M-100 -100H164V164H-100ZM32 4C52 4 60 12 60 32S52 60 32 60 4 52 4 32 12 4 32 4Z" transform="translate(0 -8)" fill="#000" fill-opacity="0.18" fill-rule="evenodd"/>
      <ellipse rx="7" ry="4" transform="translate(19 14) rotate(-30)" fill="#fff" fill-opacity="0.45"/>
    </g>
    <path d="M0 -7.2A3.36 3.36 0 0 1 3.36 -3.84V3.84A3.36 3.36 0 0 1 0 7.2A3.36 3.36 0 0 1 -3.36 3.84V-3.84A3.36 3.36 0 0 1 0 -7.2Z" transform="translate(38.76 21.37) rotate(-14)" fill="#fff"/>
    <path d="M0 -7.2A3.36 3.36 0 0 1 3.36 -3.84V3.84A3.36 3.36 0 0 1 0 7.2A3.36 3.36 0 0 1 -3.36 3.84V-3.84A3.36 3.36 0 0 1 0 -7.2Z" transform="translate(50.92 21.37) rotate(-14)" fill="#fff"/>
  </g>
</svg>
